:SAMPLES-PER-SECOND 30
:FULLY-SPECIFIED
:DEGREES
683
root  24.7951 36.3104 0.564955 72.9193 82.2413 62.4692
RightUpLeg  -42.8284 -29.3527 -10.8336
RightLeg  29.2814 2.32745 1.17732
RightFoot  -8.2546 -0.313865 9.43463
RightToes  -1.81608e-008 0 -3.6325e-017
Spine  22.1364 -4.24237 -6.07315
Spine1  -11.6294 -5.71171 7.00462
HEad  -38.5861 -20.1832 7.76002
LeftShoulder1  0.030991 3.40727 -25.8134
LeftArm  -3.61059 -4.01679 -45.7517
LeftForeArm  31.2794 -32.8401 -5.4723
LeftHand  -0.0315264 5.60287 0.151292
RightShoulder  -0.462558 -5.1143 21.8306
RightArm  10.8772 -6.88928 44.186
RightForeArm  5.18615 19.723 4.34815
RightHand  -0.254767 1.53379 -4.44001
LeftUpLeg  -1.49161 13.838 18.0477
LeftLeg  -4.87117 10.7846 -0.548546
LeftFoot  4.47109 3.63847 -25.9955
LeftToes  1.81866e-011 -6.13092e-011 2.52013e-011
684
root  24.302 36.7955 -0.260447 54.1772 82.6794 43.816
RightUpLeg  -40.2743 -29.5493 -8.62511
RightLeg  22.363 3.19552 1.13388
RightFoot  -11.171 -0.0853219 9.7003
RightToes  -1.81608e-008 0 -3.6325e-017
Spine  21.0743 -3.8153 -6.66457
Spine1  -10.4769 -5.43365 7.5089
HEad  -37.3552 -19.354 7.55436
LeftShoulder1  0.0839891 3.24159 -25.8159
LeftArm  -4.26369 -3.98994 -45.8636
LeftForeArm  29.8707 -31.7437 -5.28627
LeftHand  -0.0344353 5.90741 0.426199
RightShoulder  -0.416268 -4.94847 21.8761
RightArm  12.6259 -7.00229 45.8583
RightForeArm  5.95095 19.8723 4.40994
RightHand  -0.223733 2.04331 -3.66193
LeftUpLeg  -1.14468 13.5044 18.0738
LeftLeg  -5.74067 13.1437 -0.323889
LeftFoot  5.43245 3.64491 -24.6001
LeftToes  1.81866e-011 -6.13092e-011 2.52013e-011
685
root  23.8864 37.1651 -1.00401 32.1259 82.3989 22.2772
RightUpLeg  -36.2998 -29.0308 -7.24799
RightLeg  15.2173 1.93028 1.31344
RightFoot  -14.9148 0.274632 11.8711
RightToes  -1.81608e-008 0 -3.6325e-017
Spine  20.2164 -3.47306 -7.65072
Spine1  -9.56662 -5.3253 8.77978
HEad  -34.521 -18.1877 6.50119
LeftShoulder1  0.0589658 3.31775 -25.4805
LeftArm  -3.6519 -3.23223 -45.9754
LeftForeArm  27.9626 -30.7983 -5.16749
LeftHand  -0.0275691 5.67576 0.811311
RightShoulder  -0.417546 -4.925 22.4528
RightArm  14.5001 -6.86361 46.4701
RightForeArm  7.20313 20.5729 4.42006
RightHand  -0.18725 1.52568 -3.29912
LeftUpLeg  -0.785871 14.4446 19.4134
LeftLeg  -4.85036 13.7844 -0.536523
LeftFoot  5.28149 3.48248 -23.7519
LeftToes  1.81866e-011 -6.13092e-011 2.52013e-011
686
root  23.5208 37.4119 -1.63371 18.4187 81.2242 8.53552
RightUpLeg  -31.3886 -24.3183 -10.3276
RightLeg  9.04032 -6.82735 2.51159
RightFoot  -17.1121 0.593579 14.1378
RightToes  -1.81608e-008 0 -3.6325e-017
Spine  18.9437 -3.14898 -9.59761
Spine1  -9.36155 -5.32701 10.7892
HEad  -30.9042 -17.3583 5.51245
LeftShoulder1  -0.0690196 3.72204 -25.485
LeftArm  -1.96921 -2.28898 -46.0173
LeftForeArm  26.3919 -30.1056 -5.09181
LeftHand  -0.0272251 5.95363 0.970063
RightShoulder  -0.445904 -4.99878 22.9145
RightArm  14.3842 -7.73938 46.6687
RightForeArm  9.08386 21.9719 4.36417
RightHand  -0.199058 2.45668 -3.13793
LeftUpLeg  -1.28178 15.4832 20.3604
LeftLeg  -3.30888 14.0606 -0.919229
LeftFoot  4.62399 3.26025 -23.168
LeftToes  1.81866e-011 -6.13092e-011 2.52013e-011
687
root  23.1904 37.6016 -2.16196 13.3007 80.2253 3.49744
RightUpLeg  -30.4342 -25.7669 -9.76969
RightLeg  8.56719 -9.22589 2.8391
RightFoot  -16.3329 0.50912 14.1569
RightToes  -1.81608e-008 0 -3.6325e-017
Spine  18.2003 -3.0964 -10.9128
Spine1  -9.70213 -5.39831 11.6531
HEad  -27.9545 -16.9786 4.78444
LeftShoulder1  -0.191155 4.10221 -25.6261
LeftArm  0.86833 -1.74269 -45.5365
LeftForeArm  24.8949 -29.4512 -5.02265
LeftHand  -0.0313145 6.5072 0.361504
RightShoulder  -0.539986 -5.28779 23.481
RightArm  12.7831 -9.24299 46.4842
RightForeArm  10.1677 23.3856 4.47306
RightHand  -0.163531 2.12513 -2.71171
LeftUpLeg  -1.62514 15.9406 20.4973
LeftLeg  -2.49995 14.5054 -1.27792
LeftFoot  4.37765 3.0754 -22.2253
LeftToes  1.81866e-011 -6.13092e-011 2.52013e-011
688
root  22.8348 37.72 -2.57194 11.7465 78.8922 2.30933
RightUpLeg  -33.381 -31.5888 -5.75817
RightLeg  15.2013 -0.916022 0.492682
RightFoot  -15.4515 0.364412 13.0017
RightToes  -1.81608e-008 0 -3.6325e-017
Spine  17.6569 -2.77157 -11.4008
Spine1  -9.63777 -5.01604 11.1398
HEad  -26.6464 -17.1722 4.16576
LeftShoulder1  -0.288077 4.38033 -26.6754
LeftArm  3.37164 -2.22419 -44.7908
LeftForeArm  23.7449 -28.1592 -4.79155
LeftHand  -0.0325516 6.21373 0.136965
RightShoulder  -0.585615 -5.43776 23.5097
RightArm  10.3342 -10.5101 46.8209
RightForeArm  10.0742 23.7281 4.55077
RightHand  -0.195503 1.78256 -3.32675
LeftUpLeg  -1.71544 15.9919 20.1505
LeftLeg  -1.6364 15.6195 -1.39149
LeftFoot  4.22136 2.93116 -21.418
LeftToes  1.81866e-011 -6.13092e-011 2.52013e-011
